<svg width="73" height="73" viewBox="0 0 73 73" fill="none" xmlns="http://www.w3.org/2000/svg">
<rect width="72.282" height="73" rx="4.3082" fill="white"/>
<path d="M10.1809 58.6656C10.1808 58.8107 10.1805 58.9559 10.1804 59.1011C10.1447 59.1182 10.1055 59.0992 10.0695 59.112C10.0084 59.1222 9.9464 59.1297 9.88881 59.1539C9.84561 59.1721 9.81319 59.2017 9.8048 59.2509C9.79754 59.2766 9.79829 59.3023 9.80442 59.3281C9.81556 59.424 9.86727 59.5051 9.90258 59.592C10.0493 59.953 10.1988 60.3128 10.3486 60.6725C10.469 60.9619 10.5915 61.2503 10.7129 61.5392C10.8193 61.7924 10.9263 62.0453 11.0317 62.2988C11.2464 62.8149 11.4599 63.3316 11.6746 63.8477C11.7425 64.011 11.8127 64.1733 11.8818 64.3362C11.8858 64.3457 11.887 64.3567 11.9025 64.3628C11.9701 64.2461 12.0278 64.1233 12.0874 64.0015C12.1972 63.777 12.3077 63.5529 12.4176 63.3284C12.5021 63.1556 12.5859 62.9824 12.6711 62.81C12.6839 62.7842 12.6848 62.7629 12.673 62.7355C12.5882 62.5373 12.5061 62.338 12.4221 62.1396C12.3491 61.9671 12.2739 61.7957 12.2011 61.6233C12.0683 61.3086 11.9367 60.9932 11.804 60.6783C11.7186 60.4758 11.6314 60.2741 11.5458 60.0718C11.4715 59.8962 11.4002 59.7194 11.3239 59.5448C11.2733 59.429 11.1764 59.3505 11.0779 59.2802C10.9564 59.1937 10.8183 59.1401 10.6673 59.1264C10.6514 59.1248 10.6362 59.1175 10.6206 59.1128C10.5916 59.0964 10.5529 59.125 10.5271 59.0928C10.5264 58.9671 10.5269 58.8414 10.5271 58.7157C10.5271 58.6975 10.5224 58.6785 10.5335 58.6615C10.554 58.6555 10.5749 58.6583 10.5956 58.6583C11.5414 58.6582 12.4872 58.6588 13.433 58.6567C13.4954 58.6566 13.5095 58.6745 13.5069 58.7332C13.502 58.8391 13.506 58.9454 13.505 59.0516C13.5049 59.0714 13.5133 59.0934 13.4965 59.1112C13.3919 59.1324 13.2911 59.1633 13.1961 59.2137C13.1284 59.2496 13.0755 59.301 13.0241 59.3554C13.0054 59.3751 13.0086 59.3944 13.0183 59.4178C13.1597 59.7574 13.3004 60.0972 13.4409 60.4371C13.4867 60.5478 13.53 60.6596 13.5772 60.7697C13.5889 60.797 13.5977 60.8286 13.6288 60.8473C13.7042 60.6953 13.7796 60.5437 13.8547 60.3919C14.0071 60.0845 14.1593 59.777 14.3118 59.4697C14.3252 59.4426 14.3267 59.4103 14.3489 59.3872C14.3633 59.3631 14.359 59.3386 14.3513 59.3138C14.2934 59.1752 14.1678 59.1479 14.0398 59.1284C14.0135 59.1243 13.988 59.1192 13.9626 59.1127C13.9293 59.0955 13.8874 59.1264 13.8567 59.0938C13.8558 58.9658 13.8565 58.8379 13.8565 58.7099C13.8565 58.6938 13.8526 58.6767 13.8627 58.6617C13.881 58.6557 13.8999 58.6583 13.9186 58.6583C14.5636 58.6582 15.2087 58.6582 15.8537 58.6585C15.874 58.6585 15.8954 58.6524 15.9146 58.665L15.9156 58.664C15.9282 58.8072 15.9185 58.9507 15.9208 59.0939C15.8853 59.1256 15.8401 59.0955 15.8023 59.1125C15.6593 59.1337 15.5153 59.149 15.3783 59.2005C15.2799 59.2374 15.1899 59.2881 15.1073 59.3525C15.0872 59.3681 15.0755 59.3899 15.0644 59.4122C14.9152 59.7144 14.7621 60.0149 14.6182 60.3198C14.5292 60.5082 14.4296 60.6915 14.3433 60.881C14.2525 61.0801 14.1496 61.2729 14.0539 61.4694C14.046 61.4857 14.0458 61.5074 14.0347 61.5204C13.9291 61.6464 13.9916 61.7626 14.0469 61.8849C14.128 62.0646 14.1994 62.2486 14.2753 62.4307C14.3541 62.6202 14.4338 62.8095 14.5125 62.9991C14.5882 63.1811 14.663 63.3637 14.7387 63.5457C14.8167 63.7334 14.8953 63.921 14.9737 64.1085C14.9948 64.1591 15.0174 64.2092 15.0375 64.2602C15.0538 64.3015 15.0673 64.2975 15.0865 64.2617C15.1774 64.092 15.2553 63.9158 15.3398 63.7431C15.4955 63.4247 15.6568 63.109 15.8092 62.789C15.8954 62.6078 15.9923 62.4319 16.0743 62.2487C16.1597 62.0579 16.2645 61.8767 16.3495 61.6859C16.4304 61.5043 16.5306 61.3322 16.6111 61.1508C16.6926 60.9672 16.794 60.7935 16.8757 60.6102C16.9608 60.4192 17.066 60.2381 17.1509 60.0472C17.2317 59.8657 17.3299 59.6928 17.4129 59.5124C17.4325 59.4698 17.4502 59.4263 17.4688 59.3833C17.4869 59.3411 17.475 59.2988 17.4367 59.2775C17.3437 59.2258 17.2438 59.196 17.1396 59.1738C17.0656 59.158 16.9891 59.1615 16.9169 59.1375C16.8916 59.1289 16.866 59.1306 16.8406 59.1365C16.8047 59.1222 16.7666 59.1281 16.7295 59.1256C16.6841 59.1104 16.6361 59.1289 16.5906 59.1153C16.5615 59.114 16.5326 59.1126 16.5036 59.1112C16.4397 59.1027 16.3756 59.1092 16.3116 59.1077C16.2886 59.1072 16.2709 59.1052 16.2719 59.0753C16.2761 58.9373 16.2643 58.7991 16.2784 58.6612C16.2967 58.6551 16.3156 58.6578 16.3343 58.6578C17.0794 58.6577 17.8243 58.6577 18.5694 58.6581C18.5896 58.6581 18.6111 58.6514 18.6299 58.6652C18.6304 58.7964 18.6304 58.9276 18.6317 59.0589C18.632 59.0924 18.6258 59.1096 18.5852 59.1153C18.4087 59.1406 18.2806 59.2298 18.2008 59.3957C17.9975 59.8189 17.7873 60.2388 17.5806 60.6604C17.4019 61.0247 17.2245 61.3897 17.0461 61.7543C16.7654 62.328 16.484 62.9014 16.2033 63.4752C16.0105 63.8695 15.8184 64.2642 15.6256 64.6584C15.4561 65.0048 15.2863 65.351 15.1156 65.6968C15.0199 65.8907 14.9221 66.0838 14.8252 66.2771C14.8218 66.2795 14.8183 66.2837 14.8149 66.2837C14.6016 66.2836 14.3882 66.2895 14.175 66.2809C14.0515 66.0049 13.9365 65.7253 13.8209 65.4459C13.7276 65.2204 13.6298 64.9967 13.535 64.7719C13.3834 64.4123 13.2334 64.0519 13.0802 63.693C13.0655 63.6587 13.0599 63.5999 13.0271 63.5977C13.0005 63.5958 12.9908 63.6567 12.9745 63.6898C12.7973 64.0501 12.6224 64.4113 12.4456 64.7717C12.204 65.2643 11.9612 65.7565 11.7191 66.2488C11.7147 66.2578 11.7119 66.2676 11.7084 66.2771C11.6984 66.2875 11.6854 66.2849 11.6732 66.2849C11.4513 66.2849 11.2294 66.285 11.0074 66.2849C10.999 66.2849 10.9909 66.2839 10.983 66.2809C10.9176 66.1635 10.8747 66.0363 10.8215 65.9136C10.7302 65.7033 10.6423 65.4914 10.5539 65.2798C10.4624 65.0611 10.3726 64.8416 10.2807 64.6231C10.2186 64.4754 10.1529 64.329 10.0908 64.1813C10.0075 63.9835 9.92637 63.7846 9.84349 63.5866C9.76974 63.4105 9.69462 63.2351 9.62037 63.0593C9.54875 62.8897 9.47776 62.7196 9.40614 62.55C9.3319 62.3741 9.2569 62.1984 9.18278 62.0225C9.09851 61.8228 9.0155 61.6226 8.93074 61.4231C8.87051 61.2813 8.80791 61.1405 8.74744 60.9988C8.68709 60.8572 8.62774 60.7151 8.56852 60.573C8.48488 60.3726 8.40437 60.1709 8.3176 59.9721C8.25187 59.8217 8.19678 59.6667 8.12015 59.521C8.00897 59.3095 7.83306 59.1868 7.60193 59.1387C7.57 59.1321 7.5372 59.1296 7.50477 59.1252C7.47998 59.1086 7.44367 59.1366 7.42288 59.1043C7.42226 58.9746 7.42263 58.8449 7.42288 58.7152C7.42288 58.697 7.41813 58.678 7.42927 58.661C7.44968 58.655 7.47071 58.6578 7.49137 58.6578C8.36568 58.6577 9.23999 58.6576 10.1143 58.6581C10.1365 58.6581 10.1601 58.6508 10.181 58.6652L10.1809 58.6656Z" fill="#3F51B5"/>
<path d="M19.3874 65.1781C19.3868 65.4281 19.3861 65.678 19.3853 65.928C19.3853 65.9572 19.3841 65.9863 19.3836 66.0154C19.3731 66.1509 19.3821 66.2865 19.3786 66.422C19.378 66.444 19.3855 66.4672 19.3719 66.4881C19.2043 66.57 19.0282 66.6315 18.8559 66.7017C18.5451 66.8284 18.2329 66.9516 17.9212 67.0764C17.8282 67.1137 17.7354 67.1514 17.6388 67.1904C17.6257 67.1329 17.6594 67.0875 17.6779 67.0413C17.7971 66.7461 17.9038 66.4468 18.0004 66.1437C18.0708 65.9223 18.138 65.6995 18.191 65.4734C18.2387 65.2706 18.2836 65.0668 18.3122 64.8595C18.3188 64.8122 18.3094 64.7603 18.3354 64.7156C18.3472 64.6955 18.3334 64.6716 18.3454 64.6516C18.3289 64.6143 18.3541 64.578 18.3479 64.5409C18.3577 64.5169 18.3506 64.4917 18.3528 64.4671C18.3494 64.3745 18.3599 64.2815 18.3469 64.1891C18.3414 64.0853 18.3194 63.984 18.2932 63.8841C18.2738 63.8101 18.1832 63.7754 18.095 63.7958C17.9122 63.8381 17.7612 63.939 17.616 64.0505C17.4777 64.1565 17.3462 64.2705 17.2218 64.3928C17.1923 64.4218 17.1572 64.4424 17.1207 64.4071C17.0871 64.3747 17.0861 64.3349 17.1111 64.2949C17.1967 64.1583 17.2732 64.0157 17.3738 63.8889C17.4478 63.7959 17.5201 63.7018 17.6016 63.6142C17.6578 63.5539 17.7118 63.4907 17.7716 63.4338C17.9317 63.282 18.0993 63.1386 18.2803 63.0115C18.375 62.945 18.4843 62.9247 18.5933 62.9023C18.6273 62.8953 18.6621 62.8924 18.6965 62.8877C18.7174 62.881 18.7384 62.8814 18.7595 62.8874C18.8541 62.9103 18.9519 62.9154 19.0392 62.9719C19.174 63.0593 19.2451 63.1873 19.2971 63.3309C19.3406 63.4507 19.3553 63.5767 19.3739 63.7019C19.3839 63.7292 19.3764 63.7576 19.3787 63.7854C19.381 63.8161 19.3739 63.8474 19.3831 63.8777C19.3844 63.9776 19.3856 64.0775 19.3869 64.1774C19.3961 64.2164 19.3908 64.2559 19.3909 64.2951C19.3915 64.5668 19.3913 64.8386 19.3909 65.1103C19.3909 65.133 19.3946 65.156 19.387 65.1782L19.3874 65.1781Z" fill="#3F51B5"/>
<path d="M18.4176 62.4258C18.3908 62.5892 18.3418 62.7412 18.1943 62.8388C18.1446 62.8718 18.0907 62.8974 18.0295 62.9021C17.9921 62.9143 17.9523 62.8983 17.9148 62.9113C17.7656 62.8824 17.6396 62.8103 17.5427 62.695C17.4139 62.5416 17.3212 62.3702 17.3145 62.1633C17.2998 62.0969 17.3172 62.0289 17.3047 61.9623C17.3257 61.7825 17.3882 61.6222 17.5517 61.5274C17.7115 61.4349 17.9276 61.4736 18.086 61.6032C18.268 61.752 18.3697 61.9467 18.4044 62.1779C18.4067 62.1938 18.4131 62.2092 18.4176 62.2247C18.4258 62.2917 18.4258 62.3588 18.4176 62.4258Z" fill="#F7AD1A"/>
<path d="M19.3831 65.1805C19.3831 64.8469 19.3829 64.5132 19.3828 64.1797C19.3982 64.195 19.3933 64.2145 19.3933 64.2326C19.3936 64.5309 19.3936 64.8291 19.3933 65.1275C19.3933 65.1455 19.3985 65.1652 19.3831 65.1805Z" fill="#3F51B5"/>
<path d="M10.9766 66.2851C11.1934 66.2845 11.4101 66.2839 11.627 66.283C11.652 66.283 11.677 66.2819 11.702 66.2812C11.6936 66.2974 11.6782 66.2954 11.6641 66.2955C11.4465 66.2955 11.2287 66.2955 11.0111 66.2955C10.9986 66.2955 10.9861 66.2955 10.9767 66.2851H10.9766Z" fill="#3F51B5"/>
<path d="M14.1797 66.2851C14.3964 66.2839 14.6131 66.2826 14.83 66.2812C14.8216 66.2974 14.8063 66.2954 14.7921 66.2955C14.5994 66.2955 14.4068 66.2955 14.2141 66.2955C14.2016 66.2955 14.1891 66.2955 14.1798 66.2851H14.1797Z" fill="#3F51B5"/>
<path d="M19.3752 66.4883C19.3756 66.3524 19.3756 66.2166 19.3764 66.0806C19.3766 66.0587 19.3692 66.0349 19.3868 66.0156C19.3874 66.1606 19.3881 66.3057 19.3883 66.4507C19.3883 66.4642 19.3932 66.4806 19.3751 66.4883H19.3752Z" fill="#3F51B5"/>
<path d="M18.3438 64.1875C18.3684 64.2827 18.3516 64.3793 18.3543 64.4753C18.3521 64.4807 18.3491 64.4816 18.3451 64.477C18.3446 64.3804 18.3443 64.2839 18.3438 64.1875Z" fill="#3F51B5"/>
<path d="M17.3089 61.9688C17.3296 62.035 17.3144 62.1028 17.3187 62.1698C17.294 62.1038 17.3096 62.0359 17.3089 61.9688Z" fill="#F9C65F"/>
<path d="M18.4141 62.4276C18.4141 62.3607 18.4141 62.2935 18.4141 62.2266C18.433 62.2935 18.4333 62.3607 18.4141 62.4276Z" fill="#FCDC9C"/>
<path d="M17.9141 62.9106C17.9507 62.8888 17.9904 62.9033 18.0288 62.9013C17.9921 62.9231 17.9524 62.9087 17.9141 62.9106Z" fill="#FBD68C"/>
<path d="M19.3865 63.8727C19.3666 63.8443 19.3785 63.8131 19.3785 63.7829C19.3828 63.7799 19.3857 63.781 19.3875 63.7857L19.3865 63.8727Z" fill="#3F51B5"/>
<path d="M19.3854 63.7919C19.3824 63.791 19.3794 63.79 19.3763 63.7891C19.3759 63.7605 19.3754 63.7318 19.375 63.7031C19.3938 63.7309 19.3854 63.7618 19.3853 63.7919H19.3854Z" fill="#3F51B5"/>
<path d="M14.3539 59.3047C14.3688 59.3296 14.3781 59.3544 14.3516 59.3781C14.3523 59.3536 14.3532 59.3291 14.3539 59.3047Z" fill="#B3BBDB"/>
<path d="M9.80871 59.3271C9.79318 59.3013 9.79256 59.2757 9.80908 59.25C9.80908 59.2757 9.80883 59.3013 9.80871 59.3271Z" fill="#9AA4CF"/>
<path d="M18.3482 64.6484C18.3492 64.6705 18.354 64.693 18.3381 64.7124C18.3363 64.6903 18.3311 64.6676 18.3482 64.6484Z" fill="#3F51B5"/>
<path d="M18.3441 64.4782C18.3471 64.4777 18.3503 64.4771 18.3533 64.4766C18.3524 64.4982 18.3627 64.5216 18.3438 64.5407C18.3439 64.5199 18.344 64.4991 18.3441 64.4783V64.4782Z" fill="#3F51B5"/>
<path d="M18.7583 62.8868C18.7373 62.8868 18.7163 62.8869 18.6953 62.887C18.7162 62.8712 18.7373 62.8709 18.7583 62.8868Z" fill="#3F51B5"/>
<path d="M24.536 66.008C24.0075 66.008 23.5566 65.9161 23.1832 65.7323C22.8156 65.5485 22.5284 65.2843 22.3216 64.9396C22.1205 64.5892 22.0114 64.1727 21.9942 63.6902C21.9884 63.4432 21.9856 63.179 21.9856 62.8975C21.9856 62.6103 21.9884 62.3403 21.9942 62.0876C22.0114 61.6108 22.1205 61.203 22.3216 60.8641C22.5284 60.5251 22.8185 60.2638 23.1918 60.08C23.571 59.8961 24.019 59.8042 24.536 59.8042C24.9553 59.8042 25.323 59.8617 25.6389 59.9766C25.9548 60.0857 26.2162 60.2293 26.423 60.4074C26.6355 60.5797 26.7935 60.7664 26.8969 60.9674C27.006 61.1685 27.0635 61.3552 27.0692 61.5275C27.075 61.5792 27.0606 61.6223 27.0261 61.6568C26.9917 61.6912 26.9457 61.7085 26.8883 61.7085H26.0008C25.9434 61.7085 25.9003 61.697 25.8715 61.674C25.8428 61.651 25.817 61.6166 25.794 61.5706C25.748 61.45 25.6762 61.3322 25.5786 61.2173C25.4809 61.0967 25.3488 60.9962 25.1822 60.9157C25.0157 60.8353 24.8002 60.7951 24.536 60.7951C24.1454 60.7951 23.8323 60.8985 23.5968 61.1053C23.367 61.3121 23.2435 61.6539 23.2263 62.1307C23.2091 62.6304 23.2091 63.1359 23.2263 63.6471C23.2435 64.1354 23.3699 64.4858 23.6054 64.6983C23.8467 64.9109 24.1626 65.0172 24.5532 65.0172C24.8117 65.0172 25.0415 64.9712 25.2425 64.8793C25.4493 64.7874 25.6102 64.6438 25.7251 64.4485C25.8457 64.2532 25.906 64.0033 25.906 63.6988V63.4317H24.8548C24.7974 63.4317 24.7485 63.4116 24.7083 63.3714C24.6681 63.3312 24.648 63.2795 24.648 63.2163V62.7597C24.648 62.6965 24.6681 62.6448 24.7083 62.6046C24.7485 62.5644 24.7974 62.5442 24.8548 62.5442H26.9141C26.9773 62.5442 27.0261 62.5644 27.0606 62.6046C27.1008 62.6448 27.1209 62.6965 27.1209 62.7597V63.6644C27.1209 64.1469 27.0147 64.5634 26.8021 64.9138C26.5953 65.2642 26.2966 65.5341 25.906 65.7237C25.5211 65.9133 25.0645 66.008 24.536 66.008ZM29.9574 66.008C29.607 66.008 29.3026 65.9305 29.0441 65.7754C28.7913 65.6146 28.596 65.3905 28.4581 65.1033C28.3203 64.8104 28.2514 64.4657 28.2514 64.0694V61.6481C28.2514 61.5907 28.2715 61.5419 28.3117 61.5017C28.3519 61.4615 28.4007 61.4413 28.4581 61.4413H29.2164C29.2796 61.4413 29.3284 61.4615 29.3629 61.5017C29.4031 61.5419 29.4232 61.5907 29.4232 61.6481V64.0177C29.4232 64.7299 29.7362 65.0861 30.3624 65.0861C30.6611 65.0861 30.8966 64.9913 31.0689 64.8017C31.247 64.6122 31.336 64.3508 31.336 64.0177V61.6481C31.336 61.5907 31.3561 61.5419 31.3963 61.5017C31.4365 61.4615 31.4854 61.4413 31.5428 61.4413H32.3011C32.3585 61.4413 32.4073 61.4615 32.4475 61.5017C32.4877 61.5419 32.5079 61.5907 32.5079 61.6481V65.7151C32.5079 65.7725 32.4877 65.8214 32.4475 65.8616C32.4073 65.9018 32.3585 65.9219 32.3011 65.9219H31.6031C31.5399 65.9219 31.4882 65.9018 31.448 65.8616C31.4136 65.8214 31.3963 65.7725 31.3963 65.7151V65.3618C31.2412 65.5629 31.0488 65.7208 30.819 65.8357C30.5893 65.9506 30.3021 66.008 29.9574 66.008ZM35.1194 66.008C34.8207 66.008 34.5507 65.9506 34.3095 65.8357C34.0682 65.7151 33.8758 65.5571 33.7322 65.3618C33.5943 65.1608 33.5254 64.9367 33.5254 64.6897C33.5254 64.2876 33.6862 63.9688 34.0079 63.7333C34.3353 63.4921 34.7662 63.3312 35.3004 63.2508L36.4808 63.0785V62.8975C36.4808 62.6563 36.4205 62.4696 36.2999 62.3375C36.1792 62.2053 35.9725 62.1393 35.6795 62.1393C35.4727 62.1393 35.3032 62.1824 35.1711 62.2685C35.0448 62.3489 34.95 62.4581 34.8868 62.5959C34.8408 62.6706 34.7748 62.708 34.6886 62.708H34.0079C33.9447 62.708 33.8959 62.6907 33.8614 62.6563C33.8327 62.6218 33.8184 62.5758 33.8184 62.5184C33.8241 62.4265 33.8614 62.3145 33.9304 62.1824C33.9993 62.0502 34.1084 61.9239 34.2578 61.8032C34.4071 61.6769 34.5996 61.5706 34.8351 61.4844C35.0706 61.3983 35.3549 61.3552 35.6881 61.3552C36.05 61.3552 36.3544 61.4011 36.6014 61.493C36.8542 61.5792 37.0552 61.697 37.2046 61.8463C37.3539 61.9957 37.4631 62.1709 37.532 62.3719C37.6009 62.573 37.6354 62.7855 37.6354 63.0095V65.7151C37.6354 65.7725 37.6153 65.8214 37.5751 65.8616C37.5349 65.9018 37.4861 65.9219 37.4286 65.9219H36.7307C36.6675 65.9219 36.6158 65.9018 36.5756 65.8616C36.5411 65.8214 36.5239 65.7725 36.5239 65.7151V65.379C36.4492 65.4882 36.3487 65.5916 36.2223 65.6892C36.096 65.7811 35.9409 65.8587 35.757 65.9219C35.579 65.9793 35.3664 66.008 35.1194 66.008ZM35.4124 65.1895C35.6134 65.1895 35.7944 65.1464 35.9552 65.0602C36.1218 64.9741 36.251 64.842 36.343 64.6639C36.4406 64.4801 36.4894 64.2503 36.4894 63.9746V63.7936L35.6278 63.9315C35.2889 63.9832 35.0361 64.0665 34.8696 64.1814C34.703 64.2962 34.6197 64.437 34.6197 64.6036C34.6197 64.7299 34.657 64.8391 34.7317 64.931C34.8121 65.0172 34.9126 65.0832 35.0333 65.1292C35.1539 65.1694 35.2803 65.1895 35.4124 65.1895ZM39.1199 65.9219C39.0625 65.9219 39.0137 65.9018 38.9734 65.8616C38.9332 65.8214 38.9131 65.7725 38.9131 65.7151V61.6568C38.9131 61.5936 38.9332 61.5419 38.9734 61.5017C39.0137 61.4615 39.0625 61.4413 39.1199 61.4413H39.8179C39.8753 61.4413 39.9241 61.4615 39.9643 61.5017C40.0103 61.5419 40.0333 61.5936 40.0333 61.6568V62.01C40.1654 61.8262 40.3348 61.6855 40.5416 61.5878C40.7542 61.4902 40.9983 61.4413 41.274 61.4413H41.6273C41.6905 61.4413 41.7393 61.4615 41.7738 61.5017C41.814 61.5419 41.8341 61.5907 41.8341 61.6481V62.2685C41.8341 62.326 41.814 62.3748 41.7738 62.415C41.7393 62.4552 41.6905 62.4753 41.6273 62.4753H40.9552C40.6795 62.4753 40.4641 62.5529 40.309 62.708C40.1596 62.8631 40.085 63.0756 40.085 63.3456V65.7151C40.085 65.7725 40.0649 65.8214 40.0246 65.8616C39.9844 65.9018 39.9327 65.9219 39.8696 65.9219H39.1199ZM43.9122 66.008C43.6135 66.008 43.3435 65.9506 43.1022 65.8357C42.861 65.7151 42.6686 65.5571 42.5249 65.3618C42.3871 65.1608 42.3182 64.9367 42.3182 64.6897C42.3182 64.2876 42.479 63.9688 42.8007 63.7333C43.1281 63.4921 43.5589 63.3312 44.0931 63.2508L45.2736 63.0785V62.8975C45.2736 62.6563 45.2133 62.4696 45.0926 62.3375C44.972 62.2053 44.7652 62.1393 44.4723 62.1393C44.2655 62.1393 44.096 62.1824 43.9639 62.2685C43.8375 62.3489 43.7427 62.4581 43.6795 62.5959C43.6336 62.6706 43.5675 62.708 43.4814 62.708H42.8007C42.7375 62.708 42.6887 62.6907 42.6542 62.6563C42.6255 62.6218 42.6111 62.5758 42.6111 62.5184C42.6169 62.4265 42.6542 62.3145 42.7231 62.1824C42.7921 62.0502 42.9012 61.9239 43.0505 61.8032C43.1999 61.6769 43.3923 61.5706 43.6278 61.4844C43.8634 61.3983 44.1477 61.3552 44.4809 61.3552C44.8428 61.3552 45.1472 61.4011 45.3942 61.493C45.647 61.5792 45.848 61.697 45.9974 61.8463C46.1467 61.9957 46.2558 62.1709 46.3248 62.3719C46.3937 62.573 46.4282 62.7855 46.4282 63.0095V65.7151C46.4282 65.7725 46.4081 65.8214 46.3679 65.8616C46.3277 65.9018 46.2788 65.9219 46.2214 65.9219H45.5235C45.4603 65.9219 45.4086 65.9018 45.3684 65.8616C45.3339 65.8214 45.3167 65.7725 45.3167 65.7151V65.379C45.242 65.4882 45.1415 65.5916 45.0151 65.6892C44.8887 65.7811 44.7336 65.8587 44.5498 65.9219C44.3717 65.9793 44.1592 66.008 43.9122 66.008ZM44.2051 65.1895C44.4062 65.1895 44.5871 65.1464 44.748 65.0602C44.9146 64.9741 45.0438 64.842 45.1357 64.6639C45.2334 64.4801 45.2822 64.2503 45.2822 63.9746V63.7936L44.4206 63.9315C44.0816 63.9832 43.8289 64.0665 43.6623 64.1814C43.4957 64.2962 43.4124 64.437 43.4124 64.6036C43.4124 64.7299 43.4498 64.8391 43.5245 64.931C43.6049 65.0172 43.7054 65.0832 43.826 65.1292C43.9467 65.1694 44.073 65.1895 44.2051 65.1895ZM47.9127 65.9219C47.8552 65.9219 47.8064 65.9018 47.7662 65.8616C47.726 65.8214 47.7059 65.7725 47.7059 65.7151V61.6481C47.7059 61.5907 47.726 61.5419 47.7662 61.5017C47.8064 61.4615 47.8552 61.4413 47.9127 61.4413H48.6192C48.6767 61.4413 48.7255 61.4615 48.7657 61.5017C48.8059 61.5419 48.826 61.5907 48.826 61.6481V62.0014C48.9754 61.8176 49.1649 61.6654 49.3947 61.5447C49.6302 61.4184 49.9203 61.3552 50.265 61.3552C50.6154 61.3552 50.9198 61.4356 51.1783 61.5964C51.4368 61.7515 51.635 61.9727 51.7728 62.2599C51.9164 62.5471 51.9882 62.8918 51.9882 63.2939V65.7151C51.9882 65.7725 51.9681 65.8214 51.9279 65.8616C51.8877 65.9018 51.8389 65.9219 51.7814 65.9219H51.0232C50.9658 65.9219 50.9169 65.9018 50.8767 65.8616C50.8365 65.8214 50.8164 65.7725 50.8164 65.7151V63.3456C50.8164 63.0124 50.7331 62.751 50.5665 62.5615C50.4057 62.3719 50.1702 62.2771 49.86 62.2771C49.5613 62.2771 49.3229 62.3719 49.1448 62.5615C48.9668 62.751 48.8777 63.0124 48.8777 63.3456V65.7151C48.8777 65.7725 48.8576 65.8214 48.8174 65.8616C48.7772 65.9018 48.7284 65.9219 48.6709 65.9219H47.9127ZM55.2294 65.9219C54.8848 65.9219 54.5947 65.8616 54.3592 65.7409C54.1236 65.6203 53.9484 65.4422 53.8336 65.2067C53.7187 64.9655 53.6612 64.6668 53.6612 64.3106V62.3547H52.9805C52.9231 62.3547 52.8743 62.3346 52.8341 62.2944C52.7939 62.2542 52.7737 62.2053 52.7737 62.1479V61.6481C52.7737 61.5907 52.7939 61.5419 52.8341 61.5017C52.8743 61.4615 52.9231 61.4413 52.9805 61.4413H53.6612V60.011C53.6612 59.9536 53.6785 59.9048 53.7129 59.8645C53.7531 59.8243 53.8048 59.8042 53.868 59.8042H54.566C54.6234 59.8042 54.6722 59.8243 54.7124 59.8645C54.7526 59.9048 54.7727 59.9536 54.7727 60.011V61.4413H55.8498C55.9072 61.4413 55.9561 61.4615 55.9963 61.5017C56.0365 61.5419 56.0566 61.5907 56.0566 61.6481V62.1479C56.0566 62.2053 56.0365 62.2542 55.9963 62.2944C55.9561 62.3346 55.9072 62.3547 55.8498 62.3547H54.7727V64.2244C54.7727 64.46 54.813 64.6438 54.8934 64.7759C54.9795 64.908 55.126 64.9741 55.3328 64.9741H55.9273C55.9848 64.9741 56.0336 64.9942 56.0738 65.0344C56.114 65.0746 56.1341 65.1234 56.1341 65.1809V65.7151C56.1341 65.7725 56.114 65.8214 56.0738 65.8616C56.0336 65.9018 55.9848 65.9219 55.9273 65.9219H55.2294ZM59.0009 66.008C58.3633 66.008 57.8578 65.8242 57.4844 65.4566C57.111 65.089 56.91 64.5662 56.8813 63.8884C56.8755 63.831 56.8727 63.7592 56.8727 63.673C56.8727 63.5811 56.8755 63.5093 56.8813 63.4576C56.9042 63.0268 57.0019 62.6534 57.1742 62.3375C57.3523 62.0215 57.5964 61.7803 57.9066 61.6137C58.2168 61.4413 58.5816 61.3552 59.0009 61.3552C59.4662 61.3552 59.8568 61.4528 60.1727 61.6481C60.4887 61.8377 60.7271 62.1048 60.8879 62.4495C61.0487 62.7884 61.1292 63.1819 61.1292 63.6299V63.8109C61.1292 63.8683 61.1091 63.9171 61.0688 63.9573C61.0286 63.9975 60.9769 64.0177 60.9137 64.0177H58.0531C58.0531 64.0177 58.0531 64.0263 58.0531 64.0435C58.0531 64.0607 58.0531 64.0751 58.0531 64.0866C58.0588 64.2876 58.0962 64.4743 58.1651 64.6466C58.2398 64.8132 58.3461 64.9482 58.4839 65.0516C58.6275 65.155 58.797 65.2067 58.9923 65.2067C59.1531 65.2067 59.2881 65.1837 59.3973 65.1378C59.5064 65.0861 59.5954 65.0286 59.6644 64.9655C59.7333 64.9023 59.7821 64.8506 59.8108 64.8104C59.8625 64.7414 59.9028 64.7012 59.9315 64.6897C59.9659 64.6725 60.0148 64.6639 60.078 64.6639H60.819C60.8764 64.6639 60.9224 64.6811 60.9568 64.7156C60.997 64.75 61.0143 64.7931 61.0085 64.8448C61.0028 64.9367 60.954 65.0487 60.862 65.1809C60.7759 65.313 60.6495 65.4422 60.4829 65.5686C60.3163 65.695 60.1067 65.8012 59.8539 65.8874C59.6069 65.9678 59.3226 66.008 59.0009 66.008ZM58.0531 63.2939H59.9573V63.268C59.9573 63.044 59.92 62.8487 59.8453 62.6821C59.7706 62.5155 59.6615 62.3834 59.5179 62.2858C59.3743 62.1881 59.202 62.1393 59.0009 62.1393C58.7999 62.1393 58.6275 62.1881 58.4839 62.2858C58.3403 62.3834 58.2312 62.5155 58.1565 62.6821C58.0876 62.8487 58.0531 63.044 58.0531 63.268V63.2939ZM64.1462 66.008C63.5086 66.008 63.0031 65.8242 62.6297 65.4566C62.2563 65.089 62.0553 64.5662 62.0265 63.8884C62.0208 63.831 62.0179 63.7592 62.0179 63.673C62.0179 63.5811 62.0208 63.5093 62.0265 63.4576C62.0495 63.0268 62.1472 62.6534 62.3195 62.3375C62.4976 62.0215 62.7417 61.7803 63.0519 61.6137C63.3621 61.4413 63.7268 61.3552 64.1462 61.3552C64.6115 61.3552 65.0021 61.4528 65.318 61.6481C65.6339 61.8377 65.8723 62.1048 66.0332 62.4495C66.194 62.7884 66.2744 63.1819 66.2744 63.6299V63.8109C66.2744 63.8683 66.2543 63.9171 66.2141 63.9573C66.1739 63.9975 66.1222 64.0177 66.059 64.0177H63.1984C63.1984 64.0177 63.1984 64.0263 63.1984 64.0435C63.1984 64.0607 63.1984 64.0751 63.1984 64.0866C63.2041 64.2876 63.2415 64.4743 63.3104 64.6466C63.3851 64.8132 63.4913 64.9482 63.6292 65.0516C63.7728 65.155 63.9423 65.2067 64.1376 65.2067C64.2984 65.2067 64.4334 65.1837 64.5425 65.1378C64.6517 65.0861 64.7407 65.0286 64.8096 64.9655C64.8786 64.9023 64.9274 64.8506 64.9561 64.8104C65.0078 64.7414 65.048 64.7012 65.0767 64.6897C65.1112 64.6725 65.16 64.6639 65.2232 64.6639H65.9642C66.0217 64.6639 66.0676 64.6811 66.1021 64.7156C66.1423 64.75 66.1595 64.7931 66.1538 64.8448C66.148 64.9367 66.0992 65.0487 66.0073 65.1809C65.9212 65.313 65.7948 65.4422 65.6282 65.5686C65.4616 65.695 65.2519 65.8012 64.9992 65.8874C64.7522 65.9678 64.4679 66.008 64.1462 66.008ZM63.1984 63.2939H65.1026V63.268C65.1026 63.044 65.0653 62.8487 64.9906 62.6821C64.9159 62.5155 64.8068 62.3834 64.6632 62.2858C64.5196 62.1881 64.3472 62.1393 64.1462 62.1393C63.9451 62.1393 63.7728 62.1881 63.6292 62.2858C63.4856 62.3834 63.3764 62.5155 63.3018 62.6821C63.2328 62.8487 63.1984 63.044 63.1984 63.268V63.2939Z" fill="#122163"/>
<path fill-rule="evenodd" clip-rule="evenodd" d="M36.1484 56.7245V5.2657L36.1486 5.26562L56.7322 12.9845V30.9951C56.7322 46.4328 36.1486 56.7246 36.1486 56.7246C36.1486 56.7246 36.1486 56.7246 36.1484 56.7245Z" fill="url(#paint0_linear_19978_68920)"/>
<path fill-rule="evenodd" clip-rule="evenodd" d="M36.1484 56.7245V5.2657L36.1482 5.26562L15.5646 12.9845V30.9951C15.5646 46.4328 36.1482 56.7246 36.1482 56.7246C36.1482 56.7246 36.1483 56.7246 36.1484 56.7245Z" fill="url(#paint1_linear_19978_68920)"/>
<path d="M36.1426 54.6924C36.1426 54.6924 55.0508 45.2383 55.0508 31.0571V14.5124L36.1426 7.42188L17.2344 14.5124V31.0571C17.2344 45.2383 36.1426 54.6924 36.1426 54.6924Z" fill="#DDE3FF"/>
<path d="M36.1426 54.6924C36.1426 54.6924 55.0508 45.2383 55.0508 31.0571V14.5124L36.1426 7.42188L17.2344 14.5124V31.0571C17.2344 45.2383 36.1426 54.6924 36.1426 54.6924Z" fill="url(#paint2_radial_19978_68920)"/>
<path fill-rule="evenodd" clip-rule="evenodd" d="M35.4609 44.3416L35.4658 44.3416C35.5238 44.3419 35.5806 44.3245 35.6284 44.2917C35.6763 44.2589 35.713 44.2122 35.7337 44.158L35.7348 44.1549L37.7296 38.97C37.8181 38.7412 37.9534 38.5333 38.1269 38.3598C38.3004 38.1863 38.5083 38.051 38.7372 37.9625L38.7387 37.9619L43.9224 35.9685L43.9242 35.9678C43.9774 35.9476 44.0232 35.9119 44.0559 35.8653C44.0879 35.8197 44.1057 35.7658 44.1073 35.7101C44.107 35.6461 44.0875 35.5837 44.0511 35.531C44.014 35.4772 43.9613 35.4362 43.9 35.4135L43.8945 35.4115L38.7357 33.4266C38.5068 33.3381 38.2989 33.2028 38.1254 33.0293C37.9519 32.8558 37.8166 32.6479 37.7281 32.4191L37.7275 32.4175L35.7346 27.235C35.7133 27.1796 35.6758 27.132 35.6269 27.0984C35.5781 27.0649 35.5202 27.0469 35.4609 27.0469C35.4016 27.0469 35.3437 27.0649 35.2949 27.0984C35.246 27.132 35.2085 27.1796 35.1873 27.235L33.1922 32.4206C33.1037 32.6494 32.9684 32.8573 32.7949 33.0308C32.6214 33.2043 32.4135 33.3396 32.1847 33.4281L32.1832 33.4287L27.0006 35.4217C26.9452 35.4429 26.8976 35.4804 26.8641 35.5293C26.8305 35.5781 26.8125 35.636 26.8125 35.6953C26.8125 35.7546 26.8305 35.8125 26.8641 35.8613C26.8976 35.9102 26.9452 35.9477 27.0006 35.9689L32.1862 37.964C32.415 38.0525 32.6229 38.1878 32.7964 38.3613C32.9699 38.5348 33.1052 38.7427 33.1937 38.9715L33.1943 38.973L35.1882 44.158C35.2088 44.2122 35.2455 44.2589 35.2934 44.2917C35.3413 44.3245 35.398 44.3419 35.4561 44.3416L35.4609 44.3416Z" fill="url(#paint3_linear_19978_68920)"/>
<path fill-rule="evenodd" clip-rule="evenodd" d="M28.9571 27.0461L28.9596 27.0461C28.9885 27.0462 29.0168 27.0375 29.0406 27.0212C29.0645 27.0048 29.0827 26.9816 29.093 26.9546L29.0936 26.9531L30.0874 24.3699C30.1315 24.2559 30.1989 24.1523 30.2854 24.0659C30.3718 23.9794 30.4754 23.912 30.5894 23.868L30.5902 23.8677L33.1727 22.8745L33.1736 22.8742C33.2001 22.8641 33.223 22.8463 33.2392 22.8231C33.2552 22.8004 33.2641 22.7735 33.2648 22.7458C33.2647 22.7139 33.255 22.6828 33.2368 22.6565C33.2184 22.6298 33.1921 22.6093 33.1616 22.598L33.1588 22.597L30.5886 21.6081C30.4746 21.564 30.3711 21.4966 30.2846 21.4102C30.1982 21.3237 30.1308 21.2202 30.0867 21.1062L30.0864 21.1054L29.0935 18.5234C29.0829 18.4958 29.0642 18.4721 29.0399 18.4554C29.0155 18.4386 28.9867 18.4297 28.9571 18.4297C28.9276 18.4297 28.8988 18.4386 28.8744 18.4554C28.8501 18.4721 28.8314 18.4958 28.8208 18.5234L27.8269 21.1069C27.7828 21.2209 27.7154 21.3245 27.6289 21.4109C27.5425 21.4974 27.4389 21.5648 27.3249 21.6089L27.3241 21.6091L24.7421 22.6021C24.7146 22.6127 24.6909 22.6314 24.6741 22.6557C24.6574 22.68 24.6484 22.7089 24.6484 22.7384C24.6484 22.7679 24.6574 22.7968 24.6741 22.8211C24.6909 22.8455 24.7146 22.8642 24.7421 22.8747L27.3256 23.8687C27.4397 23.9128 27.5432 23.9802 27.6297 24.0666C27.7161 24.1531 27.7835 24.2566 27.8276 24.3707L27.8279 24.3714L28.8213 26.9546C28.8316 26.9816 28.8498 27.0048 28.8737 27.0212C28.8975 27.0375 28.9258 27.0462 28.9547 27.0461L28.9571 27.0461Z" fill="url(#paint4_linear_19978_68920)"/>
<path fill-rule="evenodd" clip-rule="evenodd" d="M44.524 32.3124L44.527 32.3124C44.5623 32.3126 44.5969 32.302 44.626 32.282C44.6552 32.262 44.6775 32.2336 44.6901 32.2006L44.6908 32.1987L45.9055 29.0415C45.9594 28.9022 46.0418 28.7756 46.1474 28.6699C46.2531 28.5643 46.3796 28.4819 46.519 28.428L46.5199 28.4277L49.6764 27.2138L49.6775 27.2134C49.7099 27.2011 49.7378 27.1794 49.7577 27.151C49.7771 27.1232 49.788 27.0904 49.789 27.0565C49.7888 27.0175 49.7769 26.9795 49.7547 26.9474C49.7322 26.9147 49.7001 26.8897 49.6628 26.8759L49.6594 26.8746L46.5181 25.666C46.3787 25.6121 46.2521 25.5297 46.1465 25.4241C46.0408 25.3184 45.9584 25.1919 45.9046 25.0525L45.9042 25.0516L44.6906 21.8958C44.6777 21.8621 44.6549 21.8331 44.6251 21.8126C44.5954 21.7922 44.5601 21.7812 44.524 21.7812C44.4879 21.7812 44.4527 21.7922 44.4229 21.8126C44.3932 21.8331 44.3703 21.8621 44.3574 21.8958L43.1425 25.0534C43.0887 25.1928 43.0063 25.3193 42.9006 25.425C42.795 25.5306 42.6684 25.613 42.529 25.6669L42.5281 25.6673L39.3723 26.8808C39.3386 26.8938 39.3097 26.9166 39.2892 26.9464C39.2688 26.9761 39.2578 27.0114 39.2578 27.0475C39.2578 27.0836 39.2688 27.1188 39.2892 27.1486C39.3097 27.1783 39.3386 27.2012 39.3723 27.2141L42.53 28.4289C42.6693 28.4828 42.7959 28.5652 42.9015 28.6709C43.0072 28.7765 43.0896 28.9031 43.1435 29.0424L43.1438 29.0434L44.3579 32.2006C44.3705 32.2336 44.3929 32.262 44.422 32.282C44.4512 32.302 44.4857 32.3126 44.5211 32.3124L44.524 32.3124Z" fill="url(#paint5_linear_19978_68920)"/>
<defs>
<linearGradient id="paint0_linear_19978_68920" x1="36.1484" y1="26.0886" x2="56.732" y2="26.0886" gradientUnits="userSpaceOnUse">
<stop stop-color="#F5E088"/>
<stop offset="1" stop-color="#D99B28"/>
</linearGradient>
<linearGradient id="paint1_linear_19978_68920" x1="15.5648" y1="23.3361" x2="36.1484" y2="23.3361" gradientUnits="userSpaceOnUse">
<stop stop-color="#F0DD85"/>
<stop offset="1" stop-color="#D99B28"/>
</linearGradient>
<radialGradient id="paint2_radial_19978_68920" cx="0" cy="0" r="1" gradientUnits="userSpaceOnUse" gradientTransform="translate(7.89995 -4.06665) rotate(53.5158) scale(64.0021 51.2017)">
<stop offset="0.333333" stop-color="#B4BEE8"/>
<stop offset="0.651074" stop-color="#4154AF"/>
</radialGradient>
<linearGradient id="paint3_linear_19978_68920" x1="44.1073" y1="33.1201" x2="26.8125" y2="33.1201" gradientUnits="userSpaceOnUse">
<stop stop-color="#F0DD85"/>
<stop offset="1" stop-color="#D99B28"/>
</linearGradient>
<linearGradient id="paint4_linear_19978_68920" x1="33.2648" y1="21.4554" x2="24.6484" y2="21.4554" gradientUnits="userSpaceOnUse">
<stop stop-color="#F0DD85"/>
<stop offset="1" stop-color="#D99B28"/>
</linearGradient>
<linearGradient id="paint5_linear_19978_68920" x1="49.789" y1="25.4794" x2="39.2578" y2="25.4794" gradientUnits="userSpaceOnUse">
<stop stop-color="#F0DD85"/>
<stop offset="1" stop-color="#D99B28"/>
</linearGradient>
</defs>
</svg>
